<mxfile host="app.diagrams.net" agent="Mozilla/5.0 (X11; Linux x86_64) AppleWebKit/537.36 (KHTML, like Gecko) Chrome/129.0.0.0 Safari/537.36" version="24.7.16">
  <diagram name="Page-1" id="OXAJP3kugtd8D6Qac-m4">
    <mxGraphModel dx="1393" dy="795" grid="1" gridSize="10" guides="1" tooltips="1" connect="1" arrows="1" fold="1" page="1" pageScale="1" pageWidth="850" pageHeight="1100" math="0" shadow="0">
      <root>
        <mxCell id="0" />
        <mxCell id="1" parent="0" />
        <mxCell id="VeFE5hSSkCX1CsbRpSc8-6" value="&lt;div&gt;&lt;br&gt;&lt;/div&gt;&lt;div&gt;&lt;br&gt;&lt;/div&gt;&lt;div&gt;&lt;br&gt;&lt;/div&gt;&lt;div&gt;&lt;br&gt;&lt;/div&gt;&lt;div&gt;&lt;br&gt;&lt;/div&gt;&lt;div&gt;&lt;br&gt;&lt;/div&gt;&lt;div&gt;&lt;br&gt;&lt;/div&gt;&lt;div&gt;&lt;br&gt;&lt;/div&gt;&lt;div&gt;&lt;br&gt;&lt;/div&gt;&lt;div&gt;&lt;br&gt;&lt;/div&gt;&lt;div&gt;&lt;br&gt;&lt;/div&gt;&lt;div&gt;&lt;br&gt;&lt;/div&gt;&lt;div&gt;&lt;br&gt;&lt;/div&gt;&lt;div&gt;&lt;br&gt;&lt;/div&gt;&lt;div&gt;&lt;br&gt;&lt;/div&gt;&lt;div&gt;&lt;br&gt;&lt;/div&gt;&lt;div&gt;&lt;br&gt;&lt;/div&gt;&lt;div&gt;&lt;br&gt;&lt;/div&gt;&lt;div&gt;&lt;br&gt;&lt;/div&gt;&lt;div&gt;&lt;br&gt;&lt;/div&gt;&lt;div&gt;&lt;br&gt;&lt;/div&gt;&lt;div&gt;Docker Compose&lt;/div&gt;" style="rounded=0;whiteSpace=wrap;html=1;" vertex="1" parent="1">
          <mxGeometry x="70" y="60" width="730" height="400" as="geometry" />
        </mxCell>
        <mxCell id="VeFE5hSSkCX1CsbRpSc8-1" value="DB&lt;div&gt;&lt;br&gt;&lt;/div&gt;&lt;div&gt;Postgres&lt;/div&gt;&lt;div&gt;MySQL&lt;/div&gt;&lt;div&gt;MariaDB&lt;/div&gt;" style="shape=cylinder3;whiteSpace=wrap;html=1;boundedLbl=1;backgroundOutline=1;size=15;" vertex="1" parent="1">
          <mxGeometry x="610" y="150" width="140" height="180" as="geometry" />
        </mxCell>
        <mxCell id="VeFE5hSSkCX1CsbRpSc8-5" style="edgeStyle=orthogonalEdgeStyle;rounded=0;orthogonalLoop=1;jettySize=auto;html=1;exitX=1;exitY=0.5;exitDx=0;exitDy=0;entryX=0;entryY=0.5;entryDx=0;entryDy=0;endArrow=none;endFill=0;" edge="1" parent="1" source="VeFE5hSSkCX1CsbRpSc8-2" target="VeFE5hSSkCX1CsbRpSc8-3">
          <mxGeometry relative="1" as="geometry" />
        </mxCell>
        <mxCell id="VeFE5hSSkCX1CsbRpSc8-2" value="FRONT&lt;div&gt;&lt;br&gt;&lt;/div&gt;&lt;div&gt;Node&lt;/div&gt;&lt;div&gt;Nest&lt;/div&gt;&lt;div&gt;Vue&lt;br&gt;&lt;/div&gt;" style="rounded=1;whiteSpace=wrap;html=1;" vertex="1" parent="1">
          <mxGeometry x="140" y="140" width="120" height="200" as="geometry" />
        </mxCell>
        <mxCell id="VeFE5hSSkCX1CsbRpSc8-3" value="BACK&lt;div&gt;&lt;br&gt;&lt;/div&gt;&lt;div&gt;C#&lt;/div&gt;&lt;div&gt;Node&lt;/div&gt;&lt;div&gt;Java&lt;/div&gt;&lt;div&gt;...&lt;/div&gt;&lt;div&gt;&lt;br&gt;&lt;div&gt;&lt;br&gt;&lt;/div&gt;&lt;div&gt;Services&lt;/div&gt;&lt;div&gt;Repos&lt;/div&gt;&lt;div&gt;Middlewares&lt;/div&gt;&lt;/div&gt;" style="rounded=1;whiteSpace=wrap;html=1;" vertex="1" parent="1">
          <mxGeometry x="370" y="150" width="120" height="180" as="geometry" />
        </mxCell>
        <mxCell id="VeFE5hSSkCX1CsbRpSc8-4" style="edgeStyle=orthogonalEdgeStyle;rounded=0;orthogonalLoop=1;jettySize=auto;html=1;exitX=1;exitY=0.5;exitDx=0;exitDy=0;entryX=0;entryY=0.5;entryDx=0;entryDy=0;entryPerimeter=0;endArrow=none;endFill=0;" edge="1" parent="1" source="VeFE5hSSkCX1CsbRpSc8-3" target="VeFE5hSSkCX1CsbRpSc8-1">
          <mxGeometry relative="1" as="geometry" />
        </mxCell>
      </root>
    </mxGraphModel>
  </diagram>
</mxfile>
